<?xml version="1.0" encoding="utf-8"?>
<!-- Generator: Adobe Illustrator 19.0.1, SVG Export Plug-In . SVG Version: 6.00 Build 0)  -->
<svg version="1.1" id="Layer_1" xmlns="http://www.w3.org/2000/svg" xmlns:xlink="http://www.w3.org/1999/xlink" x="0px" y="0px"
	 viewBox="0 0 43.1 42.6" style="enable-background:new 0 0 43.1 42.6;" xml:space="preserve">
<style type="text/css">
	.st0{fill:#63B217;}
	.st1{fill:#FFFFFF;}
	.st2{fill:#67FFCC;}
</style>
<g>
	<path class="st0" d="M36.8,20.1c0,0.4-0.4,0.8-0.8,0.8c-0.4,0-0.8-0.4-0.8-0.8c0-0.4,0.4-0.8,0.8-0.8
		C36.5,19.3,36.8,19.7,36.8,20.1L36.8,20.1z M36.8,20.1"/>
	<path class="st0" d="M8,20.1c0,0.4-0.4,0.8-0.8,0.8c-0.4,0-0.8-0.4-0.8-0.8c0-0.4,0.4-0.8,0.8-0.8C7.7,19.3,8,19.7,8,20.1L8,20.1z
		 M8,20.1"/>
	<path class="st0" d="M10.4,22.5c0,0.4-0.4,0.8-0.8,0.8c-0.4,0-0.8-0.4-0.8-0.8c0-0.4,0.4-0.8,0.8-0.8
		C10.1,21.7,10.4,22.1,10.4,22.5L10.4,22.5z M10.4,22.5"/>
	<path class="st0" d="M15.2,22.5c0,0.4-0.4,0.8-0.8,0.8c-0.4,0-0.8-0.4-0.8-0.8c0-0.4,0.4-0.8,0.8-0.8
		C14.9,21.7,15.2,22.1,15.2,22.5L15.2,22.5z M15.2,22.5"/>
	<path class="st0" d="M12.8,24.9c0,0.4-0.4,0.8-0.8,0.8c-0.4,0-0.8-0.4-0.8-0.8c0-0.4,0.4-0.8,0.8-0.8
		C12.5,24.1,12.8,24.5,12.8,24.9L12.8,24.9z M12.8,24.9"/>
	<path class="st0" d="M17.6,24.9c0,0.4-0.4,0.8-0.8,0.8c-0.4,0-0.8-0.4-0.8-0.8c0-0.4,0.4-0.8,0.8-0.8
		C17.3,24.1,17.6,24.5,17.6,24.9L17.6,24.9z M17.6,24.9"/>
	<path class="st0" d="M20,27.3c0,0.4-0.4,0.8-0.8,0.8c-0.4,0-0.8-0.4-0.8-0.8c0-0.4,0.4-0.8,0.8-0.8C19.7,26.5,20,26.9,20,27.3
		L20,27.3z M20,27.3"/>
	<path class="st0" d="M24.8,27.3c0,0.4-0.4,0.8-0.8,0.8c-0.4,0-0.8-0.4-0.8-0.8c0-0.4,0.4-0.8,0.8-0.8
		C24.5,26.5,24.8,26.9,24.8,27.3L24.8,27.3z M24.8,27.3"/>
	<path class="st0" d="M27.2,24.9c0,0.4-0.4,0.8-0.8,0.8c-0.4,0-0.8-0.4-0.8-0.8c0-0.4,0.4-0.8,0.8-0.8
		C26.9,24.1,27.2,24.5,27.2,24.9L27.2,24.9z M27.2,24.9"/>
	<path class="st0" d="M22.4,29.7c0,0.4-0.4,0.8-0.8,0.8c-0.4,0-0.8-0.4-0.8-0.8s0.4-0.8,0.8-0.8C22.1,28.9,22.4,29.3,22.4,29.7
		L22.4,29.7z M22.4,29.7"/>
	<path class="st0" d="M29.6,22.5c0,0.4-0.4,0.8-0.8,0.8c-0.4,0-0.8-0.4-0.8-0.8c0-0.4,0.4-0.8,0.8-0.8
		C29.3,21.7,29.6,22.1,29.6,22.5L29.6,22.5z M29.6,22.5"/>
	<path class="st0" d="M34.4,22.5c0,0.4-0.4,0.8-0.8,0.8c-0.4,0-0.8-0.4-0.8-0.8c0-0.4,0.4-0.8,0.8-0.8
		C34.1,21.7,34.4,22.1,34.4,22.5L34.4,22.5z M34.4,22.5"/>
	<g>
		<path class="st0" d="M32,24.9c0,0.4-0.4,0.8-0.8,0.8c-0.4,0-0.8-0.4-0.8-0.8c0-0.4,0.4-0.8,0.8-0.8C31.7,24.1,32,24.5,32,24.9
			L32,24.9z M32,24.9"/>
		<path class="st0" d="M12.7,19.8L12,19.3c-0.4,0-0.8,0.4-0.8,0.8c0,0.4,0.4,0.8,0.8,0.8c0.4,0,0.8-0.4,0.8-0.8
			C12.8,20,12.8,19.9,12.7,19.8z M22.4,24.8L22,25.1l-1-0.6c-0.1,0.1-0.2,0.3-0.2,0.5c0,0.4,0.4,0.8,0.8,0.8s0.8-0.4,0.8-0.8
			C22.4,24.9,22.4,24.8,22.4,24.8z M31.7,19.5l-1.3,0.7c0,0.4,0.4,0.7,0.8,0.7c0.4,0,0.8-0.4,0.8-0.8C32,19.9,31.9,19.6,31.7,19.5z
			 M33.5,18.5c0.1,0,0.1,0,0.2,0c0.3,0,0.6-0.2,0.8-0.6L33.5,18.5z M22.4,24.8L22,25.1l-1-0.6c-0.1,0.1-0.2,0.3-0.2,0.5
			c0,0.4,0.4,0.8,0.8,0.8s0.8-0.4,0.8-0.8C22.4,24.9,22.4,24.8,22.4,24.8z"/>
		<polygon class="st1" points="44,30.1 22,42.6 0,30.1 7.7,25.7 9.3,26.6 3.2,30.1 22,40.8 40.7,30.1 34.6,26.6 36.2,25.7 		"/>
		<path class="st0" d="M44,21.3l-7.5,4.3c0,0-0.1,0.1-0.1,0.1l-0.1,0l-1.6,0.9L22,33.8L9.3,26.6l-1.6-0.9L0,21.3l7.7-4.4l2.4,1.4
			c-0.1,0.1-0.3,0.2-0.5,0.2c-0.3,0-0.6-0.2-0.7-0.5l-5.7,3.2l1.1,0.6c0.1-0.1,0.3-0.2,0.5-0.2c0.4,0,0.8,0.4,0.8,0.8
			c0,0,0,0.1,0,0.1l8,4.6c0-0.4,0.4-0.7,0.8-0.7c0.4,0,0.8,0.4,0.8,0.8c0,0.3-0.1,0.5-0.3,0.6l1.8,1c0.1,0,0.1,0,0.2,0
			c0.3,0,0.6,0.2,0.8,0.6L22,32l3.7-2.1c0-0.1,0-0.1,0-0.2c0-0.4,0.4-0.8,0.8-0.8c0.2,0,0.4,0.1,0.5,0.2l1.8-1
			c-0.4,0-0.8-0.4-0.8-0.8c0-0.4,0.3-0.8,0.8-0.8c0.4,0,0.8,0.4,0.8,0.8c0,0.1,0,0.3-0.1,0.4l5.1-2.9l3.2-1.8
			c-0.1-0.1-0.2-0.3-0.2-0.4c0-0.4,0.4-0.8,0.8-0.8c0.3,0,0.6,0.2,0.7,0.5l1.6-0.9l-6.1-3.5l1.6-0.9L44,21.3z"/>
		<path class="st1" d="M22,0L0,12.5l7.7,4.4l2.4,1.4l1.8,1l0.7,0.4l8.3,4.7l1.4,0.3l8-4.6l1.3-0.7l1.8-1l0.9-0.5l0.3-0.1l1.6-0.9
			l7.7-4.4L22,0z M34.6,16L22,23.2L3.2,12.5L22,1.8l18.8,10.7L34.6,16z"/>
	</g>
</g>
<path class="st2" d="M8.9,18.1"/>
<polygon class="st1" points="22.4,24.8 22,25.1 21,24.5 "/>
</svg>
