<?xml version="1.0" encoding="utf-8"?>
<!-- Generator: Adobe Illustrator 19.0.1, SVG Export Plug-In . SVG Version: 6.00 Build 0)  -->
<svg version="1.1" id="Layer_1" xmlns="http://www.w3.org/2000/svg" xmlns:xlink="http://www.w3.org/1999/xlink" x="0px" y="0px"
	 viewBox="0 0 273.8 328.6" style="enable-background:new 0 0 273.8 328.6;" xml:space="preserve">
<style type="text/css">
	.st0{fill:#53C419;}
	.st1{fill:#FFFFFF;}
</style>
<g>
	<g>
		<path class="st0" d="M112.6,187c22.2,0,40.2-18.8,40.2-42c0-23.1-17.5-41.8-40-42.6H86.6c-3.3,0-6,2.7-6,6V175h-8.3
			c-3.3,0-6,2.7-6,6c0,3.3,2.7,6,6,6h8.3v10.3h-8.3c-3.3,0-6,2.7-6,6c0,3.3,2.7,6,6,6h8.3v31.2c0,3.3,2.7,6,6,6c3.3,0,6-2.7,6-6
			v-31.2h38.1c3.3,0,6-2.7,6-6c0-3.3-2.7-6-6-6H92.6V187H112.6z M92.6,114.5h20c15.8,0.6,28.2,14,28.2,30.6s-12.6,30-28.2,30H92.6
			V114.5z"/>
		<path class="st1" d="M273.8,160.2L157.1,43.7l-8.5-8.4L114.1,0.9c-2.3-2.3-6.2-2.3-8.5,0L-54.7,160.4c-1.1,1.1-1.8,2.6-1.8,4.2
			s0.6,3.1,1.8,4.2l160.3,158.9c1.2,1.1,2.7,1.8,4.2,1.8s3-0.6,4.2-1.8l159.7-158.9c1.1-1.1,1.8-2.6,1.8-4.2
			C275.5,162.9,274.9,161.3,273.8,160.2z M109.8,314.9L-41.9,164.5l151.8-151L149,52.5L261,164.5L109.8,314.9z"/>
	</g>
</g>
</svg>
