<?xml version="1.0" encoding="utf-8"?>
<!-- Generator: Adobe Illustrator 19.0.1, SVG Export Plug-In . SVG Version: 6.00 Build 0)  -->
<svg version="1.1" id="Layer_1" xmlns="http://www.w3.org/2000/svg" xmlns:xlink="http://www.w3.org/1999/xlink" x="0px" y="0px"
	 viewBox="-49 141 512 512" style="enable-background:new -49 141 512 512;" xml:space="preserve">
<style type="text/css">
	.st0{fill:#FFFFFF;}
	.st1{fill:#53C419;}
</style>
<g>
	<path class="st0" d="M201.9,540.4L201.9,540.4c2.8,0,5.4-1.2,7.4-3.2c5.3-5.5,130.9-138.3,130.9-242.8c0-78.9-62-143.1-138.2-143.1
		S63.6,215.5,63.6,294.4c0,105,125.5,237.2,130.9,242.9C196.4,539.2,199.1,540.4,201.9,540.4z M201.9,171.7
		c65,0,117.8,55,117.8,122.7c0,82.5-90.9,190.5-117.8,220.6C175,484.9,84.1,377.4,84.1,294.4C84.1,226.8,136.9,171.7,201.9,171.7z"
		/>
	<path class="st1" d="M268.4,299.7c0-36.8-29.8-66.6-66.6-66.6s-66.6,29.8-66.6,66.6s29.8,66.6,66.6,66.6
		C238.6,366.3,268.4,336.4,268.4,299.7z M155.8,299.7c0-25.5,20.6-46.1,46.1-46.1s46.1,20.6,46.1,46.1c0,25.5-20.6,46.1-46.1,46.1
		S155.8,325.2,155.8,299.7L155.8,299.7z"/>
	<path class="st0" d="M461.7,627.7L390,474.3c-1.7-3.6-5.3-5.9-9.3-5.9h-91.5c-5.4,0-10.1,4.1-10.6,9.5c-0.3,5.9,4.3,10.8,10.1,10.8
		h85.8l62.3,133.3H-24l52.5-133.3h86c5.4,0,10.1-4,10.6-9.5c0.3-5.9-4.3-10.8-10.1-10.8H21.9c-4.2,0-8,2.6-9.5,6.5l-60.4,153.4
		c-2,5.2,0.5,11.2,5.8,13.2c1.2,0.4,2.5,0.7,3.7,0.7h490.9c5.7,0,10.2-4.6,10.2-10.2C462.7,630.6,462.4,629.1,461.7,627.7z"/>
	<path class="st1" d="M370.5,622.1h-20.6c-2.7-15-14.1-24.9-36.8-31.5c-27.6-8.1-67.7-10-110.2-12c-16.2-0.8-32.9-1.5-49.7-2.7
		c-38.3-2.7-63.1-14.5-73.9-35.3c-9.4-18.1-5.2-38.3-0.3-51.8h22c-4.2,8.9-11.3,27.7-3.6,42.6c9,17.4,36.1,22.7,57.1,24.2
		c16.8,1.1,33.3,1.9,49.3,2.7c43.7,2,85,4.1,115,12.8C350.4,580.3,367.8,597.4,370.5,622.1z"/>
</g>
</svg>
