<?xml version="1.0" encoding="utf-8"?>
<!-- Generator: Adobe Illustrator 19.0.1, SVG Export Plug-In . SVG Version: 6.00 Build 0)  -->
<svg version="1.1" id="Layer_1" xmlns="http://www.w3.org/2000/svg" xmlns:xlink="http://www.w3.org/1999/xlink" x="0px" y="0px"
	 viewBox="0 0 283.5 280.4" style="enable-background:new 0 0 283.5 280.4;" xml:space="preserve">
<style type="text/css">
	.st0{fill:#FFFFFF;}
	.st1{fill:#63B217;}
	.st2{fill:#E0251B;}
</style>
<g>
	<g>
		<g>
			<path class="st0" d="M250.6,88.6h-43l-5.9,120.6l-47.1-28.4h-44.5V72.7L43.5,14.3v34.3L0,15.3v265.1h260L250.6,88.6z M99.2,269.4
				H11V37.6l43.5,33.3V38.6l44.6,39.1V269.4z M198.7,269.4h-88.5v-77.7h41.3l49.5,29.9L198.7,269.4z M209.8,269.4l8.3-169.9h22.1
				l8.3,169.9H209.8z"/>
		</g>
		<g>
			<path class="st1" d="M275.2,8.3C269.8,3,262.7,0,255.1,0c-7.6,0-14.7,3-20.1,8.3c-3.9,3.9-6.6,8.8-7.7,14.2l-0.2,1.1l-1,0.5
				c-1.9,1.1-3.7,2.4-5.3,4c-9.5,9.5-9.5,25,0,34.5c4.6,4.6,10.8,7.2,17.3,7.2c6.5,0,12.7-2.5,17.3-7.2c1.5-1.5,2.9-3.3,4-5.2l0.5-1
				l1.1-0.2c5.4-1.1,10.3-3.8,14.2-7.7C286.3,37.5,286.3,19.4,275.2,8.3z M267.4,40.8c-1.5,1.5-3.3,2.8-5.3,3.6
				c-2,0.9-4.1,1.4-6.3,1.5L252,46l-1.2,3.6c-0.7,2-1.8,3.8-3.3,5.3c-2.5,2.5-5.9,3.9-9.5,3.9c-3.6,0-7-1.4-9.5-3.9
				c-2.5-2.5-3.9-5.9-3.9-9.5c0-3.6,1.4-7,3.9-9.5c1.5-1.5,3.3-2.6,5.3-3.3l3.6-1.2l0.2-3.8c0.2-4.4,2-8.5,5.1-11.6
				c3.3-3.3,7.7-5.1,12.3-5.1c4.7,0,9,1.8,12.3,5.1c3.3,3.3,5.1,7.7,5.1,12.3C272.5,33.1,270.7,37.5,267.4,40.8z"/>
		</g>
	</g>
</g>
<rect x="11" y="92.1" class="st1" width="50.7" height="11"/>
<rect x="11" y="137.3" class="st1" width="50.7" height="11"/>
<line class="st2" x1="11" y1="137.3" x2="11" y2="103.1"/>
<rect x="11" y="182.4" class="st1" width="50.7" height="11"/>
<rect x="11" y="227.6" class="st1" width="50.7" height="11"/>
<line class="st2" x1="11" y1="227.6" x2="11" y2="193.4"/>
<line class="st2" x1="11" y1="182.4" x2="11" y2="148.3"/>
</svg>
