<?xml version="1.0" encoding="utf-8"?>
<!-- Generator: Adobe Illustrator 22.0.1, SVG Export Plug-In . SVG Version: 6.00 Build 0)  -->
<svg version="1.1" id="Layer_1" xmlns="http://www.w3.org/2000/svg" xmlns:xlink="http://www.w3.org/1999/xlink" x="0px" y="0px"
	 viewBox="0 0 333.3 328.6" style="enable-background:new 0 0 333.3 328.6;" xml:space="preserve">
<style type="text/css">
	.st0{fill:#53C419;}
	.st1{fill:#253746;}
	.st2{font-family:'MyriadPro-Regular';}
	.st3{font-size:12px;}
</style>
<g>
	<g>
		<path class="st0" d="M172.1,187c22.2,0,40.2-18.8,40.2-42c0-23.1-17.5-41.8-40-42.6h-26.2c-3.3,0-6,2.7-6,6V175h-8.3
			c-3.3,0-6,2.7-6,6s2.7,6,6,6h8.3v10.3h-8.3c-3.3,0-6,2.7-6,6s2.7,6,6,6h8.3v31.2c0,3.3,2.7,6,6,6s6-2.7,6-6v-31.2h38.1
			c3.3,0,6-2.7,6-6s-2.7-6-6-6h-38.1V187H172.1z M152.1,114.5h20c15.8,0.6,28.2,14,28.2,30.6s-12.6,30-28.2,30h-20V114.5z"/>
		<path class="st1" d="M335.3,162.2L218.6,45.7l-10.5-10.4L173.6,0.9c-2.3-2.3-6.2-2.3-8.5,0L4.8,160.4C3.7,161.5,3,163,3,164.6
			s0.6,3.1,1.8,4.2l160.3,158.9c1.2,1.1,2.7,1.8,4.2,1.8s3-0.6,4.2-1.8l159.7-158.9c1.1-1.1,1.8-2.6,1.8-4.2
			C335,162.9,334.4,161.3,335.3,162.2z M169.3,314.9L17.6,164.5l151.8-151l39.1,39l112,112L169.3,314.9z"/>
	</g>
</g>
<text transform="matrix(1 0 0 1 -2 168)" class="st1 st2 st3">253746</text>
</svg>
