<?xml version="1.0" encoding="utf-8"?>
<!-- Generator: Adobe Illustrator 19.0.1, SVG Export Plug-In . SVG Version: 6.00 Build 0)  -->
<svg version="1.1" id="Layer_1" xmlns="http://www.w3.org/2000/svg" xmlns:xlink="http://www.w3.org/1999/xlink" x="0px" y="0px"
	 viewBox="0 0 389.8 390.2" style="enable-background:new 0 0 389.8 390.2;" xml:space="preserve">
<style type="text/css">
	.st0{fill:#61B22F;}
</style>
<g>
	<g>
		<path class="st0" d="M276.2,390.1c1.8,0.1,3.4,0.2,5.2,0.2c18.8,0,34.5-6.8,46.8-20.2l0.3-0.3c4.4-5.3,9.4-10.1,14.6-15.1
			c3.6-3.4,7.3-7,10.7-10.6c16.4-17.1,16.3-38.8-0.2-55.3l-45.6-45.6c-7.8-8.2-17.2-12.5-27.1-12.5c-9.8,0-19.3,4.2-27.4,12.3
			l-27,27c-2.4-1.4-4.9-2.6-7.3-3.8c-3-1.5-5.8-3-8.3-4.5c-24.7-15.7-47.1-36.2-68.6-62.5c-10.8-13.6-17.9-25-23-36.6
			c7-6.4,13.6-13,19.9-19.5c2.3-2.3,4.6-4.7,7-7.1c17.1-17.1,17.1-38.3,0-55.4l-22.6-22.6c-2.6-2.6-5.2-5.3-7.8-7.8
			c-5-5.1-10.2-10.5-15.4-15.3c-7.8-7.8-17.1-11.9-27-11.9c-9.8,0-19.2,4.1-27.4,11.9L17.9,63.1C7.5,73.5,1.6,86.1,0.3,100.8
			c-1.4,18.2,1.9,37.6,10.6,61c13.4,36.1,33.4,69.6,63.2,105.4c36.2,43.2,79.8,77.4,129.5,101.4
			C222.6,377.7,247.9,388.2,276.2,390.1L276.2,390.1z M89.2,254.6c-28.3-34.1-47.3-65.8-59.8-99.7c-7.8-20.9-10.6-37.1-9.4-52.6
			c0.9-10,4.7-18.3,11.9-25.4l28.2-28.2c4.3-4.2,9-6.3,13.7-6.3c4.6,0,9,2.2,13.4,6.4c5,4.7,9.9,9.7,15,14.9c2.6,2.6,5.2,5.4,7.9,8
			l22.6,22.6c9.3,9.3,9.3,18.4,0,27.7c-2.4,2.4-4.8,4.8-7.1,7.2c-7,7.1-13.6,13.8-20.9,20.3l-0.4,0.4c-6.5,6.5-5.5,12.7-3.9,17.4
			c0.1,0.2,0.2,0.4,0.2,0.6c5.8,14.1,14.1,27.4,26.7,43.4c22.8,28.1,46.8,49.9,73.4,66.8c3.3,2.1,6.7,3.8,10.1,5.5
			c3,1.5,5.8,3,8.3,4.5c0.3,0.2,0.6,0.3,0.9,0.5c2.6,1.3,5,1.9,7.6,1.9c6.3,0,10.3-4,11.6-5.4l28.4-28.4c4.3-4.3,9-6.6,13.5-6.6
			c5.6,0,10.2,3.5,13.1,6.6l45.8,45.8c11.2,11.2,6.1,21.3-0.2,27.9c-3.2,3.4-6.6,6.6-10.1,10.1c-5.4,5.1-10.9,10.5-15.9,16.5
			c-8.6,9.3-18.9,13.6-32.2,13.6c-1.3,0-2.6-0.1-3.9-0.2c-24.9-1.6-47.9-11.3-65.3-19.5C165,328.1,123.6,295.7,89.2,254.6
			L89.2,254.6z M89.2,254.6"/>
		<path class="st0" d="M214.2,71.4c-5.4-0.9-10.4,2.7-11.3,8c-0.9,5.4,2.7,10.4,8,11.3c22,3.8,42,14.2,58,30.1
			c15.9,15.9,26.3,36,30.1,58c0.8,4.8,5,8.2,9.7,8.2c0.6,0,1.1-0.1,1.7-0.2c5.4-0.9,9-6,8-11.3c-4.4-26-16.7-49.8-35.5-68.6
			C263.9,88.1,240.2,75.8,214.2,71.4L214.2,71.4z M214.2,71.4"/>
		<path class="st0" d="M379.9,183.6c0.6,0,1.1-0.1,1.7-0.2c5.4-0.9,9-6,8-11.3c-7.3-43-27.6-82.2-58.7-113.3
			C299.7,27.7,260.6,7.4,217.5,0.1c-5.4-0.9-10.4,2.7-11.3,8c-0.9,5.4,2.7,10.4,8,11.3c39,6.6,74.5,25,102.7,53.3
			c28.2,28.2,46.6,63.8,53.3,102.7C371,180.2,375.2,183.6,379.9,183.6L379.9,183.6z M379.9,183.6"/>
	</g>
</g>
</svg>
