<?xml version="1.0" encoding="utf-8"?>
<!-- Generator: Adobe Illustrator 19.0.1, SVG Export Plug-In . SVG Version: 6.00 Build 0)  -->
<svg version="1.1" id="Capa_1" xmlns="http://www.w3.org/2000/svg" xmlns:xlink="http://www.w3.org/1999/xlink" x="0px" y="0px"
	 viewBox="-49 141 512 512" style="enable-background:new -49 141 512 512;" xml:space="preserve">
<style type="text/css">
	.st0{fill:#3E9413;}
	.st1{fill:none;}
</style>
<path class="st0" d="M253.3,302.7l-24.2-32.6c-3-3.9-6.8-7.8-11.1-11.4c-4.2-3.6-8.7-6.7-13.1-9l-55.3-28c-4.3-2.1-9.4-4-14.7-5.5
	c-5.3-1.5-10.6-2.6-15.4-3l-100.5-7.7c-0.7-0.1-1.3-0.1-1.9-0.1c-5.7,0-11,1.8-15.6,4.6c-4.6,2.8-8.7,6.6-11.3,11.8L-36,273.5
	c-2.1,4.2-3,8.7-3,13.1c0,4.5,1,9,2.8,13.2c-0.5,0.6-1,1.1-1.4,1.7c-1.2,1.9-2,3.9-2.4,6l-8.9,40.1c-1,4.6,1.9,9.2,6.5,10.2
	c4.6,1,9.2-1.9,10.2-6.5l7.6-34.3l10.1,12l22.3,25L30.4,381c3.1,3.7,7.1,7.3,11.4,10.8c4.3,3.4,8.8,6.5,13.1,8.7l58.7,29.7
	c4.4,2.2,9.6,3.9,15,5.3c5.4,1.3,10.8,2.1,15.7,2.2l40.6,0.2h0c6,0,11.5-2,16.4-5c4.8-3,9.1-7,11.8-12.3l10.8-21.4l17-33.5
	l15.1-29.9l0,0c2.2-4.4,3-9.1,3.1-13.8C259.2,315.2,257.5,308.4,253.3,302.7z M240.9,328.1L240.9,328.1L198,412.8
	c-0.8,1.6-2.9,3.9-5.5,5.5c-2.6,1.6-5.6,2.5-7.5,2.5l-40.6-0.2c-2.9,0-7.5-0.6-11.8-1.7c-4.4-1-8.7-2.6-11.3-3.9l-58.7-29.7
	c-2.7-1.4-6.6-4-10.2-6.8c-3.6-2.8-7-6.1-8.9-8.4l-62.6-74.5c-1.5-1.6-2.8-5.4-2.7-8.9c0-2.2,0.5-4.2,1.1-5.4l0,0l26.2-51.7
	c0.7-1.5,2.6-3.5,4.9-4.8c2.3-1.4,5-2.2,6.9-2.1l0.6,0h0l99.8,7.7l17.2,3.8c2.8,1,5.4,2,7.2,2.9l55.3,28c2.6,1.3,6.4,3.9,9.8,6.8
	c0.5,0.4,1,0.9,1.5,1.3l12,14.1l19,25.7c1.3,1.7,2.6,5.5,2.5,9.1C242.2,324.4,241.6,326.7,240.9,328.1z M460.8,357l-13.7-91.3
	c-0.9-6.2-4.2-11.4-8.5-15.1c-4.4-3.7-10-6.2-16.2-6.2h-130c-12.6,0-22.7,10.2-22.8,22.8v183.1c-1.8-0.5-3.7-0.8-5.7-0.8H-13.8
	l-22.7,4.3c-5.8,4.1-9.6,10.8-9.6,18.5v51.2c0,12.6,10.2,22.7,22.8,22.8l19,0c6.4,24.4,28.6,42.5,55,42.5c20.5,0,38.3-10.8,48.3-27
	c10,16.2,27.9,27,48.4,27c26.5,0,48.6-18.1,55-42.6l61.6-0.1c5.4,0,10.3-2,14.3-5.2c3.9,3.1,8.8,5.1,14.2,5.1h18.9
	c6.3,24.5,28.5,42.7,55,42.7c26.5,0,48.7-18.1,55-42.7h18.9c12.6,0,22.7-10.2,22.8-22.8V386.5C463,378,462,365.3,460.8,357z
	 M50.5,571.4c-22,0-39.8-17.9-39.8-39.8c0-22,17.9-39.8,39.8-39.8c22,0,39.8,17.9,39.8,39.8C90.4,553.5,72.5,571.4,50.5,571.4z
	 M147.3,571.4c-22,0-39.8-17.9-39.8-39.8c0-22,17.9-39.8,39.8-39.8c22,0,39.8,17.9,39.8,39.8C187.1,553.5,169.2,571.4,147.3,571.4z
	 M267.9,527.1c-1.1,1.1-2.5,1.7-4,1.7l-59.8,0c-1.5-30.1-26.3-54.1-56.8-54.1c-20.5,0-38.3,10.8-48.4,27c-10-16.2-27.9-27-48.4-27
	C20,474.7-4.8,498.8-6.2,529h-17.2c-1.6,0-2.9-0.6-4-1.7c-1.1-1.1-1.7-2.4-1.7-4v-51.2c0-1.6,0.6-2.9,1.7-4c1.1-1.1,2.5-1.7,4-1.7
	h287.3c1.5,0,2.9,0.6,4,1.7c1,1.1,1.7,2.5,1.7,4v51h0C269.6,524.7,269,526,267.9,527.1z M366.3,571.4c-22,0-39.8-17.9-39.8-39.8
	c0-22,17.9-39.8,39.8-39.8c22,0,39.8,17.9,39.8,39.8C406.1,553.5,388.3,571.4,366.3,571.4z M445.9,523c0,1.6-0.6,2.9-1.7,4
	c-1.1,1.1-2.5,1.7-4,1.7H423c-1.5-30.1-26.3-54-56.7-54c-30.5,0-55.3,24-56.8,54h-17.2c-1.6,0-3-0.6-4-1.7c-1-1.1-1.7-2.5-1.7-4V267
	c0-1.5,0.6-2.9,1.7-4c1.1-1.1,2.5-1.7,4-1.7h130c1.6,0,3.5,0.7,5.1,2.1c1.6,1.4,2.6,3.2,2.8,4.7l2.4,16l2.6,17l8.7,58.3
	c1,6.6,1.9,17.9,2,25.3l0,17.3V523z"/>
<line class="st1" x1="241" y1="365.6" x2="224.1" y2="399.1"/>
<line class="st1" x1="7.9" y1="354.2" x2="-14.5" y2="329.2"/>
<line class="st1" x1="241.1" y1="449.3" x2="224.1" y2="449.3"/>
<line class="st1" x1="-13.8" y1="449.3" x2="-36.5" y2="453.6"/>
<path class="st0" d="M445.9,402l-94.8-13.6c-6.2-0.9-11.4-4.1-15.2-8.5c-3.8-4.3-6.2-10-6.3-16.2l-0.3-56.8c0-0.1,0-0.1,0-0.3
	c0-12.5,10.1-22.7,22.7-22.7h80.5l2.6,17l-83.1,0c-1.6,0-2.9,0.6-4,1.7c-1,1-1.6,2.4-1.6,3.9l0.3,57c0,1.6,0.7,3.5,2.1,5.1
	c1.4,1.6,3.2,2.6,4.7,2.8l92.3,13.2L445.9,402z"/>
<path class="st0" d="M220.6,287.2L172,383.3c-2.1,4.2-7.3,5.9-11.5,3.8c-4.2-2.1-5.9-7.3-3.8-11.5l51.9-102.5L220.6,287.2z"/>
<path class="st0" d="M134.8,234.1L82,338.4c-2.1,4.2-7.3,5.9-11.5,3.8c-4.2-2.1-5.9-7.3-3.8-11.5l50.9-100.4L134.8,234.1z"/>
<text transform="matrix(1 0 0 1 466 397)" style="font-family:'MyriadPro-Regular'; font-size:12px;">3e9413</text>
</svg>
