<?xml version="1.0" encoding="utf-8"?>
<!-- Generator: Adobe Illustrator 22.0.1, SVG Export Plug-In . SVG Version: 6.00 Build 0)  -->
<svg version="1.1" id="Layer_1" xmlns="http://www.w3.org/2000/svg" xmlns:xlink="http://www.w3.org/1999/xlink" x="0px" y="0px"
	 viewBox="0 0 124.7 24.2" style="enable-background:new 0 0 124.7 24.2;" xml:space="preserve">
<style type="text/css">
	.st0{fill:#53C419;}
	.st1{fill:#FFFFFF;}
</style>
<path class="st0" d="M51.5,22.9l1.9-4.1h1.1l-2.6,5.3h-0.8l-2.6-5.3h1.1L51.5,22.9L51.5,22.9z M33.5,19.5c0.1-0.1,0.2-0.2,0.3-0.3
	c0.2-0.2,0.4-0.3,0.7-0.4s0.6-0.1,0.9-0.1c0.4,0,0.7,0.1,1.1,0.2c0.3,0.1,0.6,0.3,0.8,0.6c0.2,0.3,0.4,0.5,0.5,0.9s0.2,0.7,0.2,1.1
	s-0.1,0.8-0.2,1.1c-0.1,0.3-0.3,0.6-0.6,0.9c-0.2,0.2-0.5,0.4-0.8,0.6c-0.3,0.1-0.7,0.2-1.1,0.2c-0.4,0-0.9-0.1-1.3-0.3
	c-0.2-0.1-0.5-0.3-0.6-0.5v0.7h-0.9v-7.9h1L33.5,19.5L33.5,19.5z M39.9,21.8c0,0.3,0.1,0.5,0.3,0.7s0.4,0.4,0.6,0.6
	c0.3,0.1,0.6,0.2,0.9,0.2s0.7-0.1,1-0.2s0.5-0.4,0.7-0.6l0.1-0.1l0.8,0.4l-0.1,0.1c-0.2,0.4-0.6,0.8-1,1c-0.5,0.2-1,0.3-1.5,0.3
	c-0.4,0-0.8-0.1-1.1-0.2s-0.6-0.3-0.9-0.6c-0.2-0.2-0.4-0.5-0.6-0.9c-0.1-0.4-0.2-0.7-0.2-1.1s0.1-0.8,0.2-1.1
	c0.1-0.3,0.3-0.6,0.6-0.9c0.2-0.3,0.5-0.4,0.9-0.6c0.4-0.1,0.7-0.2,1.1-0.2s0.7,0.1,1.1,0.2c0.3,0.1,0.6,0.3,0.8,0.5
	s0.4,0.5,0.5,0.8s0.2,0.7,0.2,1v0.5h-4.4L39.9,21.8L39.9,21.8z M33.5,21.5c0,0.3,0,0.5,0.1,0.7s0.2,0.4,0.4,0.6s0.4,0.3,0.6,0.4
	s0.5,0.1,0.8,0.1s0.7-0.1,0.9-0.2c0.3-0.2,0.5-0.4,0.6-0.6c0.2-0.3,0.2-0.6,0.2-1c0-0.3-0.1-0.7-0.2-1s-0.3-0.5-0.6-0.6
	c-0.3-0.2-0.6-0.2-1-0.2c-0.3,0-0.5,0-0.8,0.1c-0.2,0.1-0.4,0.2-0.6,0.4c-0.2,0.2-0.3,0.4-0.4,0.6C33.5,20.9,33.5,21.2,33.5,21.5
	L33.5,21.5z M39.9,21h3.4c0-0.2-0.1-0.5-0.2-0.7c-0.1-0.2-0.3-0.4-0.6-0.5s-0.6-0.2-0.9-0.2c-0.3,0-0.6,0.1-0.9,0.2
	c-0.2,0.1-0.4,0.3-0.6,0.5C40.1,20.5,40,20.7,39.9,21L39.9,21z M59.2,23.4c-0.2,0.2-0.5,0.4-0.8,0.6c-0.4,0.2-0.9,0.3-1.4,0.3
	c-0.4,0-0.7,0-1.1-0.2c-0.3-0.1-0.5-0.3-0.7-0.5C55,23.3,55,23.1,55,22.8c0-0.2,0-0.4,0.1-0.7c0.1-0.2,0.2-0.4,0.4-0.5
	c0.2-0.2,0.5-0.3,0.7-0.4c0.3-0.1,0.7-0.1,1.1-0.2c0.4,0,0.8,0,1.2-0.2c0.2-0.1,0.3-0.2,0.3-0.4c0-0.1,0-0.3-0.1-0.4
	s-0.2-0.2-0.4-0.3c-0.2-0.1-0.5-0.1-0.8-0.1c-0.2,0-0.5,0-0.7,0.1s-0.3,0.2-0.5,0.3c-0.1,0.1-0.2,0.3-0.3,0.4v0.1l-1-0.1v-0.1
	c0.1-0.3,0.2-0.6,0.5-0.8c0.2-0.2,0.5-0.4,0.8-0.5c0.4-0.1,0.7-0.2,1.1-0.2c0.3,0,0.7,0,1,0.1s0.5,0.2,0.7,0.4
	c0.2,0.2,0.3,0.4,0.4,0.6c0.1,0.2,0.1,0.5,0.1,0.7v2.2c0,0.1,0,0.3,0.1,0.4s0.2,0.1,0.3,0.1h0.4v0.8h-0.1c-0.1,0-0.2,0-0.3,0.1
	c-0.1,0-0.2,0-0.3,0c-0.3,0-0.5-0.1-0.7-0.3C59.3,23.8,59.2,23.6,59.2,23.4L59.2,23.4z M61.9,16.3h1v7.8h-1V16.3L61.9,16.3z
	 M68.6,23.4c-0.1,0.1-0.2,0.2-0.3,0.3c-0.2,0.2-0.4,0.3-0.7,0.4s-0.6,0.1-0.9,0.1c-0.5,0-0.9-0.1-1.4-0.3c-0.4-0.2-0.6-0.5-0.8-0.9
	s-0.3-0.9-0.3-1.4v-2.7h1v2.7c0,0.3,0,0.7,0.2,1c0.1,0.3,0.3,0.5,0.5,0.6c0.3,0.2,0.6,0.2,0.9,0.2c0.3,0,0.6-0.1,0.9-0.2
	c0.3-0.2,0.5-0.4,0.6-0.7c0.2-0.3,0.2-0.7,0.2-1v-2.6h1v5.3h-0.9V23.4L68.6,23.4z M75,23.4c-0.2,0.2-0.5,0.4-0.8,0.6
	c-0.4,0.2-0.9,0.3-1.4,0.3c-0.4,0-0.7,0-1.1-0.2c-0.3-0.1-0.5-0.3-0.7-0.5c-0.2-0.3-0.2-0.5-0.2-0.8c0-0.2,0-0.4,0.1-0.7
	c0.1-0.2,0.2-0.4,0.4-0.5c0.2-0.2,0.5-0.3,0.7-0.4c0.3-0.1,0.7-0.1,1.1-0.2c0.4,0,0.8,0,1.2-0.2c0.2-0.1,0.3-0.2,0.3-0.4
	c0-0.1,0-0.3-0.1-0.4s-0.2-0.2-0.4-0.3c-0.2-0.1-0.5-0.1-0.8-0.1c-0.2,0-0.5,0-0.7,0.1s-0.3,0.2-0.5,0.3c-0.1,0.1-0.2,0.3-0.3,0.4
	v0.1l-1-0.1v-0.1c0.1-0.3,0.2-0.6,0.5-0.8c0.2-0.2,0.5-0.4,0.8-0.5c0.4-0.1,0.7-0.2,1.1-0.2c0.3,0,0.7,0,1,0.1s0.5,0.2,0.7,0.4
	c0.2,0.2,0.3,0.4,0.4,0.6c0.1,0.2,0.1,0.5,0.1,0.7v2.2c0,0.1,0,0.3,0.1,0.4s0.2,0.1,0.3,0.1h0.4v0.8h-0.1c-0.1,0-0.2,0-0.3,0.1
	c-0.1,0-0.2,0-0.3,0c-0.3,0-0.5-0.1-0.7-0.3C75.1,23.8,75,23.6,75,23.4L75,23.4z M78.6,19.5c0.1-0.1,0.2-0.2,0.3-0.3
	c0.2-0.2,0.4-0.3,0.7-0.4s0.6-0.1,0.9-0.1c0.4,0,0.7,0.1,1.1,0.2c0.3,0.1,0.6,0.3,0.8,0.6c0.2,0.3,0.4,0.5,0.5,0.9s0.2,0.7,0.2,1.1
	s-0.1,0.8-0.2,1.1c-0.1,0.3-0.3,0.6-0.6,0.9c-0.2,0.2-0.5,0.4-0.8,0.6c-0.3,0.1-0.7,0.2-1.1,0.2s-0.9-0.1-1.3-0.3
	c-0.2-0.1-0.5-0.3-0.6-0.5v0.7h-0.9v-7.9h1L78.6,19.5L78.6,19.5z M84.5,16.3h1v7.8h-1V16.3L84.5,16.3z M87.7,21.8
	c0,0.3,0.1,0.5,0.3,0.7s0.4,0.4,0.6,0.6c0.3,0.1,0.6,0.2,0.9,0.2s0.7-0.1,1-0.2s0.5-0.4,0.7-0.6l0.1-0.1l0.8,0.4L92,22.9
	c-0.2,0.4-0.6,0.8-1,1c-0.5,0.2-1,0.3-1.5,0.3c-0.4,0-0.8-0.1-1.1-0.2s-0.6-0.3-0.9-0.6c-0.2-0.2-0.4-0.5-0.6-0.9
	c-0.1-0.4-0.2-0.7-0.2-1.1s0.1-0.8,0.2-1.1c0.1-0.3,0.3-0.6,0.6-0.9c0.2-0.3,0.5-0.4,0.9-0.6c0.4-0.1,0.7-0.2,1.1-0.2
	c0.4,0,0.7,0.1,1.1,0.2c0.3,0.1,0.6,0.3,0.8,0.5s0.4,0.5,0.5,0.8s0.2,0.7,0.2,1v0.5h-4.4L87.7,21.8L87.7,21.8z M59,21.5
	c-0.2,0.1-0.3,0.2-0.5,0.2c-0.3,0.1-0.7,0.1-1.1,0.1c-0.2,0-0.5,0-0.7,0.1c-0.1,0-0.3,0.1-0.4,0.2c-0.1,0.1-0.2,0.1-0.2,0.2
	S56,22.5,56,22.6c0,0.1,0,0.2,0.1,0.4c0.1,0.1,0.2,0.2,0.4,0.2c0.2,0.1,0.4,0.1,0.7,0.1s0.7-0.1,1-0.2s0.5-0.3,0.6-0.5
	s0.2-0.5,0.2-0.7V21.5L59,21.5z M74.8,21.5c-0.2,0.1-0.3,0.2-0.5,0.2c-0.3,0.1-0.7,0.1-1.1,0.1c-0.2,0-0.5,0-0.7,0.1
	c-0.1,0-0.3,0.1-0.4,0.2c-0.1,0.1-0.2,0.1-0.2,0.2s-0.1,0.2-0.1,0.3c0,0.1,0,0.2,0.1,0.4c0.1,0.1,0.2,0.2,0.3,0.2
	c0.2,0.1,0.4,0.1,0.7,0.1s0.7-0.1,1-0.2s0.5-0.3,0.6-0.5s0.2-0.5,0.2-0.7L74.8,21.5L74.8,21.5z M78.6,21.5c0,0.3,0,0.5,0.1,0.7
	s0.2,0.4,0.4,0.6s0.3,0.3,0.6,0.4c0.2,0.1,0.5,0.1,0.8,0.1s0.7-0.1,0.9-0.2c0.3-0.2,0.5-0.4,0.6-0.6c0.2-0.3,0.2-0.6,0.2-1
	c0-0.3-0.1-0.7-0.2-1s-0.3-0.5-0.6-0.6c-0.3-0.2-0.6-0.2-1-0.2c-0.3,0-0.5,0-0.8,0.1c-0.2,0.1-0.4,0.2-0.6,0.4
	c-0.2,0.2-0.3,0.4-0.4,0.6C78.6,20.9,78.6,21.2,78.6,21.5L78.6,21.5z M87.7,21h3.4c0-0.2-0.1-0.5-0.2-0.7c-0.1-0.2-0.3-0.4-0.6-0.5
	s-0.6-0.2-0.8-0.2c-0.3,0-0.6,0.1-0.9,0.2c-0.2,0.1-0.4,0.3-0.6,0.5C87.9,20.5,87.8,20.7,87.7,21L87.7,21z"/>
<g>
	<path class="st1" d="M121.2,0.4h-9.5v0.4c1.2,0,1.9,0.6,1.9,2.5v5c-0.1,2-0.7,2.5-1.9,2.5v0.4h6.6v-0.4c-1.2,0-1.9-0.6-1.9-2.5v-1
		h4.8c1.9,0,3.5-1.6,3.5-3.5C124.7,1.9,123.1,0.4,121.2,0.4z M119.5,6.2h-3.2V1.4h3.2c1.3,0,2.4,1.1,2.4,2.4
		C121.9,5.2,120.8,6.2,119.5,6.2z"/>
	<path class="st1" d="M110.6,0.3v0.4c-1.2,0-1.9,0.6-1.9,2.5v2.6c0,3-2.7,5.5-6,5.5s-6-2.5-6-5.5V3.3c-0.1-2-0.7-2.5-1.9-2.5V0.3
		h6.6v0.4c-1.2,0-1.9,0.6-1.9,2.5v2.6c0,2.4,1.8,4.3,4,4.3s4.1-1.9,4.1-4.3V3.3c-0.1-2-0.7-2.5-1.9-2.5V0.3H110.6z"/>
	<path class="st1" d="M86.5,0.1c-3.7,0-6.7,2.5-6.7,5.7s3,5.7,6.7,5.7s6.7-2.5,6.7-5.7S90.3,0.1,86.5,0.1z M86.5,10.4
		c-2.2,0-3.9-2.1-3.9-4.6s1.7-4.6,3.9-4.6s3.9,2.1,3.9,4.6S88.7,10.4,86.5,10.4z"/>
	<path class="st1" d="M61.6,6.2v0.4c-1.1,0-1.8,0-1.8,0.8c0,0.6,0,1.7,0,1.7c0,0.6-0.3,1.1-0.6,1.3c-0.9,0.7-2.6,0.9-4.4,1
		c-0.4,0-0.7,0-1.1,0c-3.3-0.3-5.9-2.7-5.9-5.6c0-3.1,3-5.7,6.7-5.7c1,0,2,0.2,2.9,0.5C58.2,0.9,58.8,1,58.9,0h0.4v3.8h-0.4
		c-0.2-1.3-0.9-1.9-2-2.3c-2.7-1-6.3,0.2-6.3,4.2c0,2.9,1.9,4.4,4,4.5c0.8,0,2.4,0.1,2.4-1V7.3c0-0.8-1.1-0.8-1.8-0.8V6.1L61.6,6.2
		L61.6,6.2z"/>
	<path class="st1" d="M42.9,0.3v0.4c-1.5,0-2,0.6-2.3,1.2l-5.5,9.4l-5.3-8.9c-0.4-0.7-1-1.7-2.5-1.7V0.3h6.2v0.4
		c-1.2,0-1.2,0.5-0.9,1.3l3.3,5.5c1.1-1.9,2.2-3.8,3.4-5.7c0.3-0.7,0.3-1.1-0.8-1.1V0.3H42.9z"/>
	<path class="st1" d="M27.1,9.1l-5.2-8.8l-5.5,9.4c-0.4,0.6-0.9,1.2-2.3,1.2v0.4h4.3v-0.4c-1.1,0-1.1-0.5-0.8-1.1L18.1,9h5.7
		l0.4,0.7c0.4,0.7,0.4,1.2-0.9,1.2v0.4h6.2v-0.4C28.2,10.8,27.5,9.8,27.1,9.1z M18.8,7.9L21,4.1l2.2,3.8H18.8z"/>
	<path class="st1" d="M10.7,5.1c0.8-0.4,1.4-1.3,1.4-2.2c0-1.4-1.1-2.5-2.5-2.5H0v0.4c1.2,0,1.8,0.6,1.9,2.5v5
		c-0.1,2-0.7,2.5-1.9,2.5v0.4h10.2c1.7,0,3.1-1.4,3.1-3.1C13.2,6.6,12.1,5.4,10.7,5.1z M4.7,1.5h2.9c0.9,0,1.7,0.8,1.7,1.7
		c0,0.8-0.5,1.4-1.2,1.6C7.9,4.9,7.5,4.9,7.2,4.9H4.7V1.5z M8.4,10.1H4.6V6h3.8c1.1,0,2.1,0.9,2.1,2.1S9.6,10.1,8.4,10.1z"/>
	<path class="st1" d="M74,7.1c1.4-0.5,2.3-1.8,2.3-3.3c0-1.9-1.6-3.5-3.5-3.5h-9.6v0.4c1.2,0,1.9,0.6,1.9,2.5v5
		c-0.1,2-0.7,2.5-1.9,2.5v0.4h6.7v-0.4c-1.2,0-1.9-0.6-1.9-2.5V7.3h1.2c4.5,0,2.3,3.9,5.9,3.9h3.4v-0.4C75.3,10.8,75.6,8,74,7.1z
		 M71.2,6.2H68V1.4h3.2c1.3,0,2.4,1.1,2.4,2.4C73.6,5.2,72.6,6.2,71.2,6.2z"/>
</g>
</svg>
