<?xml version="1.0" encoding="utf-8"?>
<!-- Generator: Adobe Illustrator 19.0.1, SVG Export Plug-In . SVG Version: 6.00 Build 0)  -->
<svg version="1.1" id="Layer_1" xmlns="http://www.w3.org/2000/svg" xmlns:xlink="http://www.w3.org/1999/xlink" x="0px" y="0px"
	 viewBox="0 0 308 308" style="enable-background:new 0 0 308 308;" xml:space="preserve">
<style type="text/css">
	.st0{fill:#FFFFFF;}
</style>
<g>
	<g>
		<path class="st0" d="M298.4,211.7c-5.3,0-9.6,4.3-9.6,9.6v67.4H19.3v-67.4c0-5.3-4.3-9.6-9.6-9.6c-5.3,0-9.6,4.3-9.6,9.6v77
			c0,5.3,4.3,9.6,9.6,9.6h288.7c5.3,0,9.6-4.3,9.6-9.6v-77C308,216,303.7,211.7,298.4,211.7L298.4,211.7z M298.4,211.7"/>
		<path class="st0" d="M147,228.2c3.7,3.7,10,3.7,13.8,0l67.4-66.4c3.8-3.8,3.8-9.9,0-13.6c-3.8-3.8-9.9-3.8-13.7,0l-50.8,50V9.6
			c0-5.3-4.3-9.6-9.7-9.6c-5.4,0-9.7,4.3-9.7,9.6v188.6l-50.8-50c-3.8-3.8-10-3.8-13.7,0c-3.8,3.8-3.8,9.9,0,13.6L147,228.2z
			 M147,228.2"/>
	</g>
</g>
</svg>
