<?xml version="1.0" encoding="utf-8"?>
<!-- Generator: Adobe Illustrator 19.0.1, SVG Export Plug-In . SVG Version: 6.00 Build 0)  -->
<svg version="1.1" id="Capa_1" xmlns="http://www.w3.org/2000/svg" xmlns:xlink="http://www.w3.org/1999/xlink" x="0px" y="0px"
	 viewBox="18.3 197 400 400" style="enable-background:new 18.3 197 400 400;" xml:space="preserve">
<style type="text/css">
	.st0{fill:#53C419;}
	.st1{fill:#FFFFFF;}
</style>
<polygon class="st0" points="288,439.3 276.7,450.7 298.3,472.3 360,410.7 348.7,399.3 298.3,449.7 "/>
<rect x="90.3" y="365" class="st1" width="16" height="16"/>
<rect x="130.3" y="365" class="st1" width="16" height="16"/>
<rect x="170.3" y="365" class="st1" width="16" height="16"/>
<rect x="210.3" y="365" class="st1" width="16" height="16"/>
<rect x="250.3" y="365" class="st1" width="16" height="16"/>
<rect x="290.3" y="365" class="st1" width="16" height="16"/>
<rect x="330.3" y="365" class="st1" width="16" height="16"/>
<rect x="90.3" y="405" class="st1" width="16" height="16"/>
<rect x="130.3" y="405" class="st1" width="16" height="16"/>
<rect x="170.3" y="405" class="st1" width="16" height="16"/>
<rect x="210.3" y="405" class="st1" width="16" height="16"/>
<rect x="90.3" y="445" class="st1" width="16" height="16"/>
<rect x="130.3" y="445" class="st1" width="16" height="16"/>
<rect x="170.3" y="445" class="st1" width="16" height="16"/>
<rect x="210.3" y="445" class="st1" width="16" height="16"/>
<rect x="90.3" y="485" class="st1" width="16" height="16"/>
<rect x="130.3" y="485" class="st1" width="16" height="16"/>
<rect x="170.3" y="485" class="st1" width="16" height="16"/>
<rect x="90.3" y="525" class="st1" width="16" height="16"/>
<rect x="130.3" y="525" class="st1" width="16" height="16"/>
<rect x="170.3" y="525" class="st1" width="16" height="16"/>
<rect x="210.3" y="485" class="st1" width="16" height="16"/>
<path class="st1" d="M353.4,593.3l61.2-61.2l3.7-3.7V317v-16v-72h-64v-32h-48v32h-176v-32h-48v32h-64v72v16v280h331.3L353.4,593.3z
	 M354.3,569.7V533H391L354.3,569.7z M322.3,213h16v16v32h-16v-32V213z M98.3,213h16v16v32h-16v-32V213z M34.3,245h48v32h48v-32h176
	v32h48v-32h48v56h-368V245z M34.3,317h368v200h-64v64h-304V317z"/>
<polygon class="st0" points="346.3,461 330.3,461 330.3,485 266.3,485 266.3,421 306.3,421 306.3,405 250.3,405 250.3,501 
	346.3,501 "/>
</svg>
