<?xml version="1.0" encoding="utf-8"?>
<!-- Generator: Adobe Illustrator 19.0.1, SVG Export Plug-In . SVG Version: 6.00 Build 0)  -->
<svg version="1.1" id="Capa_1" xmlns="http://www.w3.org/2000/svg" xmlns:xlink="http://www.w3.org/1999/xlink" x="0px" y="0px"
	 viewBox="-49 159.1 512 475.8" style="enable-background:new -49 159.1 512 475.8;" xml:space="preserve">
<style type="text/css">
	.st0{fill:#FFFFFF;}
	.st1{fill:#53C419;}
	.st2{display:none;fill:#FFFFFF;}
</style>
<path class="st0" d="M460.1,349.4c-3.9-3.9-10.3-3.9-14.2,0l-23,23c-5.3-54.4-29-104.9-68.2-144.1c-44.7-44.7-104-69.3-167.2-69.3
	c-63.2,0-122.5,24.6-167.2,69.3C-24.4,273-49,332.4-49,395.6c0,63.2,24.6,122.5,69.3,167.2c44.7,44.7,104,69.3,167.2,69.3
	c35.4,0,69.2-7.6,100.8-22.5l-12-16.6c-24.9,11.3-51.3,17.5-78.8,18.8v-33.9c0-5.5-4.5-10-10-10c-5.5,0-10,4.5-10,10v33.9
	C66.1,606.6-23.6,517-28.7,405.6H5.2c5.5,0,10-4.5,10-10c0-5.5-4.5-10-10-10h-33.9c5.1-111.3,94.8-201,206.1-206.1v33.9
	c0,5.5,4.5,10,10,10c5.6,0,10-4.5,10-10v-33.9c106,4.9,192.4,86.4,204.8,190.4L382,349.4c-3.9-3.9-10.3-3.9-14.2,0s-3.9,10.3,0,14.2
	l39,39c0,0,0,0,0.1,0.1c0.2,0.2,0.4,0.4,0.7,0.6c0.1,0.1,0.3,0.2,0.4,0.3c0.1,0.1,0.3,0.2,0.4,0.3c0.1,0.1,0.3,0.2,0.5,0.3
	c0.1,0.1,0.3,0.2,0.4,0.2c0.2,0.1,0.3,0.2,0.5,0.2c0.1,0.1,0.3,0.1,0.4,0.2s0.3,0.1,0.5,0.2c0.1,0.1,0.3,0.1,0.5,0.2
	c0.2,0,0.3,0.1,0.5,0.1c0.2,0,0.3,0.1,0.5,0.1c0.2,0,0.3,0,0.5,0.1c0.2,0,0.3,0,0.4,0.1c0.3,0,0.7,0,1,0c0.3,0,0.7,0,1,0
	c0.1,0,0.3,0,0.4-0.1c0.2,0,0.4,0,0.5-0.1c0.2,0,0.3-0.1,0.5-0.1c0.2,0,0.3-0.1,0.5-0.1c0.2,0,0.3-0.1,0.5-0.2
	c0.2-0.1,0.3-0.1,0.5-0.2c0.2-0.1,0.3-0.1,0.4-0.2c0.2-0.1,0.3-0.1,0.5-0.2c0.1-0.1,0.3-0.2,0.4-0.2c0.1-0.1,0.3-0.2,0.4-0.3
	c0.1-0.1,0.3-0.2,0.4-0.3c0.1-0.1,0.3-0.2,0.4-0.3c0.2-0.2,0.4-0.4,0.7-0.6c0,0,0,0,0.1-0.1l39.1-39
	C464,359.7,464,353.3,460.1,349.4z"/>
<path class="st1" d="M346.7,474.7c-44.2,0-80.1,35.9-80.1,80.1c0,13.8,3.5,26.8,9.7,38.1l12,16.6c14.6,15.6,35.4,25.4,58.4,25.4
	c44.1,0,80.1-35.9,80.1-80.1C426.8,510.7,390.8,474.7,346.7,474.7z M346.7,614.8c-33.1,0-60-26.9-60-60s26.9-60,60-60
	c33.1,0,60,26.9,60,60S379.8,614.8,346.7,614.8z"/>
<path class="st1" d="M181,351.3c0-26-21.1-47.1-47.1-47.1s-47.1,21.1-47.1,47.1c0,5.5,4.5,10,10,10c5.5,0,10-4.5,10-10
	c0-14.9,12.1-27,27-27s27,12.1,27,27c0,23.4-44,85.5-71.8,119.3c-2.5,3-3,7.2-1.3,10.7c1.7,3.5,5.2,5.8,9.1,5.8H171
	c5.5,0,10-4.5,10-10c0-5.5-4.5-10-10-10h-53.3c6.9-8.9,15.7-20.8,24.6-33.7C168.3,395.2,181,368.4,181,351.3z"/>
<path class="st1" d="M278,487c5.5,0,10-4.5,10-10v-81.1v-81.6c0-4.1-2.6-7.9-6.4-9.4c-3.9-1.5-8.3-0.5-11.1,2.6l-74.1,81.6
	c-2.7,2.9-3.4,7.2-1.7,10.8c1.6,3.6,5.2,6,9.2,6h64v71C268,482.5,272.5,487,278,487z M268,340.2v45.5h-41.3L268,340.2z"/>
<path class="st1" d="M333.8,538.5h11.6l-13.8,39.4c-1.8,5.2,0.9,11,6.1,12.8c1.1,0.4,2.2,0.6,3.3,0.6c4.1,0,8-2.6,9.5-6.7l18.5-52.8
	c1.1-3.1,0.6-6.5-1.3-9.1c-1.9-2.7-4.9-4.2-8.2-4.2h-25.8c-5.5,0-10,4.5-10,10S328.2,538.5,333.8,538.5z"/>
<path class="st0" d="M412.8,421c-12.9,0-12.9,20.1,0,20.1C425.7,441.1,425.7,421,412.8,421z"/>
<path class="st0" d="M405.2,458.8c-12.9,0-12.9,20.1,0,20.1C418.1,478.8,418.2,458.8,405.2,458.8z"/>
<path class="st2" d="M340.2,330c1.6,3.8,5.3,6.1,9.2,6.1c1.3,0,2.7-0.3,4-0.8c5.1-2.2,7.4-8.1,5.3-13.2
	c-15.3-35.6-42.1-66.3-75.4-86.3c-4.8-2.9-10.9-1.3-13.8,3.4c-2.9,4.8-1.3,10.9,3.4,13.8C302.6,270.9,326.5,298.2,340.2,330z"/>
<path class="st2" d="M246,219.1c-12.9,0-12.9,20.1,0,20.1C258.9,239.2,258.9,219.1,246,219.1z"/>
</svg>
