<?xml version="1.0" encoding="utf-8"?>
<!-- Generator: Adobe Illustrator 19.0.1, SVG Export Plug-In . SVG Version: 6.00 Build 0)  -->
<svg version="1.1" id="Слой_1" xmlns="http://www.w3.org/2000/svg" xmlns:xlink="http://www.w3.org/1999/xlink" x="0px" y="0px"
	 viewBox="0 0 420.1 512" style="enable-background:new 0 0 420.1 512;" xml:space="preserve">
<style type="text/css">
	.st0{clip-path:url(#SVGID_2_);fill:#939393;}
</style>
<g>
	<defs>
		<rect id="SVGID_1_" width="420.1" height="512"/>
	</defs>
	<clipPath id="SVGID_2_">
		<use xlink:href="#SVGID_1_"  style="overflow:visible;"/>
	</clipPath>
	<path class="st0" d="M15,512h299.9h0.1c4,0,7.8-1.5,10.6-4.3l90-90c0.1-0.1,0.2-0.2,0.3-0.4c2.5-2.7,4-6.3,4.1-10.2v0v0v0V75
		c0-8.3-6.7-15-15-15H180c0-33.1-26.9-60-60-60C86.9,0,60,26.9,60,60H15C6.7,60,0,66.7,0,75v422.1C0,505.4,6.7,512,15,512
		 M330.1,460.9v-38.8h38.8L330.1,460.9z M120,30c16.5,0,30,13.5,30,30H90C90,43.5,103.5,30,120,30 M30,90h120v77c0,8.3-6.7,15-15,15
		c-8.3,0-15-6.7-15-15v-30c0-8.3-6.7-15-15-15c-8.3,0-15,6.7-15,15v30c0,24.8,20.2,45,45,45c24.8,0,45-20.2,45-45V90h210v302.1h-75
		c-8.3,0-15,6.7-15,15v75H30V90z"/>
	<path class="st0" d="M255,362.1H105c-8.3,0-15,6.7-15,15c0,8.3,6.7,15,15,15h150c8.3,0,15-6.7,15-15
		C270.1,368.8,263.3,362.1,255,362.1"/>
	<path class="st0" d="M105,302.1h210c8.3,0,15-6.7,15-15c0-8.3-6.7-15-15-15H105c-8.3,0-15,6.7-15,15C90,295.3,96.7,302.1,105,302.1
		"/>
	<path class="st0" d="M225,212h90c8.3,0,15-6.7,15-15c0-8.3-6.7-15-15-15h-90c-8.3,0-15,6.7-15,15C210,205.3,216.8,212,225,212"/>
</g>
</svg>
