<?xml version="1.0" encoding="utf-8"?>
<!-- Generator: Adobe Illustrator 19.0.1, SVG Export Plug-In . SVG Version: 6.00 Build 0)  -->
<svg version="1.1" id="Layer_1" xmlns="http://www.w3.org/2000/svg" xmlns:xlink="http://www.w3.org/1999/xlink" x="0px" y="0px"
	 viewBox="133.2 47.7 124.7 24.2" style="enable-background:new 133.2 47.7 124.7 24.2;" xml:space="preserve">
<style type="text/css">
	.st0{fill:#53C419;}
	.st1{fill:#1A1A1A;}
</style>
<path class="st0" d="M184.7,70.6l1.9-4.1h1.1l-2.6,5.3h-0.8l-2.6-5.3h1.1L184.7,70.6L184.7,70.6z M166.7,67.2
	c0.1-0.1,0.2-0.2,0.3-0.3c0.2-0.2,0.4-0.3,0.7-0.4c0.3-0.1,0.6-0.1,0.9-0.1c0.4,0,0.7,0.1,1.1,0.2c0.3,0.1,0.6,0.3,0.8,0.6
	c0.2,0.3,0.4,0.5,0.5,0.9c0.1,0.4,0.2,0.7,0.2,1.1s-0.1,0.8-0.2,1.1c-0.1,0.3-0.3,0.6-0.6,0.9c-0.2,0.2-0.5,0.4-0.8,0.6
	c-0.3,0.1-0.7,0.2-1.1,0.2c-0.4,0-0.9-0.1-1.3-0.3c-0.2-0.1-0.5-0.3-0.6-0.5v0.7h-0.9V64h1V67.2L166.7,67.2z M173.1,69.5
	c0,0.3,0.1,0.5,0.3,0.7s0.4,0.4,0.6,0.6c0.3,0.1,0.6,0.2,0.9,0.2s0.7-0.1,1-0.2s0.5-0.4,0.7-0.6l0.1-0.1l0.8,0.4l-0.1,0.1
	c-0.2,0.4-0.6,0.8-1,1c-0.5,0.2-1,0.3-1.5,0.3c-0.4,0-0.8-0.1-1.1-0.2c-0.3-0.1-0.6-0.3-0.9-0.6c-0.2-0.2-0.4-0.5-0.6-0.9
	c-0.1-0.4-0.2-0.7-0.2-1.1s0.1-0.8,0.2-1.1c0.1-0.3,0.3-0.6,0.6-0.9c0.2-0.3,0.5-0.4,0.9-0.6c0.4-0.1,0.7-0.2,1.1-0.2
	s0.7,0.1,1.1,0.2c0.3,0.1,0.6,0.3,0.8,0.5c0.2,0.2,0.4,0.5,0.5,0.8c0.1,0.3,0.2,0.7,0.2,1v0.5h-4.4V69.5z M166.7,69.2
	c0,0.3,0,0.5,0.1,0.7s0.2,0.4,0.4,0.6c0.2,0.2,0.4,0.3,0.6,0.4s0.5,0.1,0.8,0.1s0.7-0.1,0.9-0.2c0.3-0.2,0.5-0.4,0.6-0.6
	c0.2-0.3,0.2-0.6,0.2-1c0-0.3-0.1-0.7-0.2-1s-0.3-0.5-0.6-0.6c-0.3-0.2-0.6-0.2-1-0.2c-0.3,0-0.5,0-0.8,0.1
	c-0.2,0.1-0.4,0.2-0.6,0.4c-0.2,0.2-0.3,0.4-0.4,0.6C166.7,68.6,166.7,68.9,166.7,69.2L166.7,69.2z M173.1,68.7h3.4
	c0-0.2-0.1-0.5-0.2-0.7c-0.1-0.2-0.3-0.4-0.6-0.5c-0.3-0.1-0.6-0.2-0.9-0.2c-0.3,0-0.6,0.1-0.9,0.2c-0.2,0.1-0.4,0.3-0.6,0.5
	C173.3,68.2,173.2,68.4,173.1,68.7L173.1,68.7z M192.4,71.1c-0.2,0.2-0.5,0.4-0.8,0.6c-0.4,0.2-0.9,0.3-1.4,0.3
	c-0.4,0-0.7,0-1.1-0.2c-0.3-0.1-0.5-0.3-0.7-0.5c-0.2-0.3-0.2-0.5-0.2-0.8c0-0.2,0-0.4,0.1-0.7c0.1-0.2,0.2-0.4,0.4-0.5
	c0.2-0.2,0.5-0.3,0.7-0.4c0.3-0.1,0.7-0.1,1.1-0.2c0.4,0,0.8,0,1.2-0.2c0.2-0.1,0.3-0.2,0.3-0.4c0-0.1,0-0.3-0.1-0.4
	s-0.2-0.2-0.4-0.3c-0.2-0.1-0.5-0.1-0.8-0.1c-0.2,0-0.5,0-0.7,0.1c-0.2,0.1-0.3,0.2-0.5,0.3c-0.1,0.1-0.2,0.3-0.3,0.4v0.1l-1-0.1V68
	c0.1-0.3,0.2-0.6,0.5-0.8c0.2-0.2,0.5-0.4,0.8-0.5c0.4-0.1,0.7-0.2,1.1-0.2c0.3,0,0.7,0,1,0.1s0.5,0.2,0.7,0.4
	c0.2,0.2,0.3,0.4,0.4,0.6c0.1,0.2,0.1,0.5,0.1,0.7v2.2c0,0.1,0,0.3,0.1,0.4c0.1,0.1,0.2,0.1,0.3,0.1h0.4v0.8h-0.1
	c-0.1,0-0.2,0-0.3,0.1c-0.1,0-0.2,0-0.3,0c-0.3,0-0.5-0.1-0.7-0.3C192.5,71.5,192.4,71.3,192.4,71.1L192.4,71.1z M195.1,64h1v7.8h-1
	V64L195.1,64z M201.8,71.1c-0.1,0.1-0.2,0.2-0.3,0.3c-0.2,0.2-0.4,0.3-0.7,0.4c-0.3,0.1-0.6,0.1-0.9,0.1c-0.5,0-0.9-0.1-1.4-0.3
	c-0.4-0.2-0.6-0.5-0.8-0.9c-0.2-0.4-0.3-0.9-0.3-1.4v-2.7h1v2.7c0,0.3,0,0.7,0.2,1c0.1,0.3,0.3,0.5,0.5,0.6c0.3,0.2,0.6,0.2,0.9,0.2
	c0.3,0,0.6-0.1,0.9-0.2c0.3-0.2,0.5-0.4,0.6-0.7c0.2-0.3,0.2-0.7,0.2-1v-2.6h1v5.3h-0.9V71.1L201.8,71.1z M208.2,71.1
	c-0.2,0.2-0.5,0.4-0.8,0.6c-0.4,0.2-0.9,0.3-1.4,0.3c-0.4,0-0.7,0-1.1-0.2c-0.3-0.1-0.5-0.3-0.7-0.5c-0.2-0.3-0.2-0.5-0.2-0.8
	c0-0.2,0-0.4,0.1-0.7c0.1-0.2,0.2-0.4,0.4-0.5c0.2-0.2,0.5-0.3,0.7-0.4c0.3-0.1,0.7-0.1,1.1-0.2c0.4,0,0.8,0,1.2-0.2
	c0.2-0.1,0.3-0.2,0.3-0.4c0-0.1,0-0.3-0.1-0.4s-0.2-0.2-0.4-0.3c-0.2-0.1-0.5-0.1-0.8-0.1c-0.2,0-0.5,0-0.7,0.1
	c-0.2,0.1-0.3,0.2-0.5,0.3c-0.1,0.1-0.2,0.3-0.3,0.4v0.1l-1-0.1V68c0.1-0.3,0.2-0.6,0.5-0.8c0.2-0.2,0.5-0.4,0.8-0.5
	c0.4-0.1,0.7-0.2,1.1-0.2c0.3,0,0.7,0,1,0.1c0.3,0.1,0.5,0.2,0.7,0.4c0.2,0.2,0.3,0.4,0.4,0.6c0.1,0.2,0.1,0.5,0.1,0.7v2.2
	c0,0.1,0,0.3,0.1,0.4s0.2,0.1,0.3,0.1h0.4v0.8h-0.1c-0.1,0-0.2,0-0.3,0.1c-0.1,0-0.2,0-0.3,0c-0.3,0-0.5-0.1-0.7-0.3
	C208.3,71.5,208.2,71.3,208.2,71.1L208.2,71.1z M211.8,67.2c0.1-0.1,0.2-0.2,0.3-0.3c0.2-0.2,0.4-0.3,0.7-0.4
	c0.3-0.1,0.6-0.1,0.9-0.1c0.4,0,0.7,0.1,1.1,0.2c0.3,0.1,0.6,0.3,0.8,0.6c0.2,0.3,0.4,0.5,0.5,0.9s0.2,0.7,0.2,1.1s-0.1,0.8-0.2,1.1
	c-0.1,0.3-0.3,0.6-0.6,0.9c-0.2,0.2-0.5,0.4-0.8,0.6c-0.3,0.1-0.7,0.2-1.1,0.2s-0.9-0.1-1.3-0.3c-0.2-0.1-0.5-0.3-0.6-0.5v0.7h-0.9
	V64h1L211.8,67.2L211.8,67.2z M217.7,64h1v7.8h-1V64L217.7,64z M220.9,69.5c0,0.3,0.1,0.5,0.3,0.7c0.2,0.2,0.4,0.4,0.6,0.6
	c0.3,0.1,0.6,0.2,0.9,0.2s0.7-0.1,1-0.2c0.3-0.1,0.5-0.4,0.7-0.6l0.1-0.1l0.8,0.4l-0.1,0.1c-0.2,0.4-0.6,0.8-1,1
	c-0.5,0.2-1,0.3-1.5,0.3c-0.4,0-0.8-0.1-1.1-0.2c-0.3-0.1-0.6-0.3-0.9-0.6c-0.2-0.2-0.4-0.5-0.6-0.9c-0.1-0.4-0.2-0.7-0.2-1.1
	s0.1-0.8,0.2-1.1c0.1-0.3,0.3-0.6,0.6-0.9c0.2-0.3,0.5-0.4,0.9-0.6c0.4-0.1,0.7-0.2,1.1-0.2c0.4,0,0.7,0.1,1.1,0.2
	c0.3,0.1,0.6,0.3,0.8,0.5c0.2,0.2,0.4,0.5,0.5,0.8s0.2,0.7,0.2,1v0.5h-4.4V69.5z M192.2,69.2c-0.2,0.1-0.3,0.2-0.5,0.2
	c-0.3,0.1-0.7,0.1-1.1,0.1c-0.2,0-0.5,0-0.7,0.1c-0.1,0-0.3,0.1-0.4,0.2c-0.1,0.1-0.2,0.1-0.2,0.2s-0.1,0.2-0.1,0.3
	c0,0.1,0,0.2,0.1,0.4c0.1,0.1,0.2,0.2,0.4,0.2c0.2,0.1,0.4,0.1,0.7,0.1s0.7-0.1,1-0.2s0.5-0.3,0.6-0.5c0.1-0.2,0.2-0.5,0.2-0.7V69.2
	L192.2,69.2z M208,69.2c-0.2,0.1-0.3,0.2-0.5,0.2c-0.3,0.1-0.7,0.1-1.1,0.1c-0.2,0-0.5,0-0.7,0.1c-0.1,0-0.3,0.1-0.4,0.2
	c-0.1,0.1-0.2,0.1-0.2,0.2s-0.1,0.2-0.1,0.3c0,0.1,0,0.2,0.1,0.4c0.1,0.1,0.2,0.2,0.3,0.2c0.2,0.1,0.4,0.1,0.7,0.1
	c0.3,0,0.7-0.1,1-0.2c0.3-0.1,0.5-0.3,0.6-0.5s0.2-0.5,0.2-0.7L208,69.2L208,69.2z M211.8,69.2c0,0.3,0,0.5,0.1,0.7s0.2,0.4,0.4,0.6
	c0.2,0.2,0.3,0.3,0.6,0.4c0.2,0.1,0.5,0.1,0.8,0.1c0.3,0,0.7-0.1,0.9-0.2c0.3-0.2,0.5-0.4,0.6-0.6c0.2-0.3,0.2-0.6,0.2-1
	c0-0.3-0.1-0.7-0.2-1s-0.3-0.5-0.6-0.6c-0.3-0.2-0.6-0.2-1-0.2c-0.3,0-0.5,0-0.8,0.1c-0.2,0.1-0.4,0.2-0.6,0.4
	c-0.2,0.2-0.3,0.4-0.4,0.6C211.8,68.6,211.8,68.9,211.8,69.2L211.8,69.2z M220.9,68.7h3.4c0-0.2-0.1-0.5-0.2-0.7
	c-0.1-0.2-0.3-0.4-0.6-0.5c-0.3-0.1-0.6-0.2-0.8-0.2c-0.3,0-0.6,0.1-0.9,0.2c-0.2,0.1-0.4,0.3-0.6,0.5
	C221.1,68.2,221,68.4,220.9,68.7L220.9,68.7z"/>
<g>
	<path class="st1" d="M254.4,48.1h-9.5v0.4c1.2,0,1.9,0.6,1.9,2.5v5c-0.1,2-0.7,2.5-1.9,2.5v0.4h6.6v-0.4c-1.2,0-1.9-0.6-1.9-2.5v-1
		h4.8c1.9,0,3.5-1.6,3.5-3.5C257.9,49.6,256.3,48.1,254.4,48.1z M252.7,53.9h-3.2v-4.8h3.2c1.3,0,2.4,1.1,2.4,2.4
		C255.1,52.9,254,53.9,252.7,53.9z"/>
	<path class="st1" d="M243.8,48v0.4c-1.2,0-1.9,0.6-1.9,2.5v2.6c0,3-2.7,5.5-6,5.5c-3.3,0-6-2.5-6-5.5V51c-0.1-2-0.7-2.5-1.9-2.5V48
		h6.6v0.4c-1.2,0-1.9,0.6-1.9,2.5v2.6c0,2.4,1.8,4.3,4,4.3c2.2,0,4.1-1.9,4.1-4.3V51c-0.1-2-0.7-2.5-1.9-2.5V48H243.8z"/>
	<path class="st1" d="M219.7,47.8c-3.7,0-6.7,2.5-6.7,5.7c0,3.2,3,5.7,6.7,5.7c3.7,0,6.7-2.5,6.7-5.7S223.5,47.8,219.7,47.8z
		 M219.7,58.1c-2.2,0-3.9-2.1-3.9-4.6s1.7-4.6,3.9-4.6c2.2,0,3.9,2.1,3.9,4.6S221.9,58.1,219.7,58.1z"/>
	<path class="st1" d="M194.8,53.9v0.4c-1.1,0-1.8,0-1.8,0.8c0,0.6,0,1.7,0,1.7c0,0.6-0.3,1.1-0.6,1.3c-0.9,0.7-2.6,0.9-4.4,1
		c-0.4,0-0.7,0-1.1,0c-3.3-0.3-5.9-2.7-5.9-5.6c0-3.1,3-5.7,6.7-5.7c1,0,2,0.2,2.9,0.5c0.8,0.3,1.4,0.4,1.5-0.6h0.4v3.8h-0.4
		c-0.2-1.3-0.9-1.9-2-2.3c-2.7-1-6.3,0.2-6.3,4.2c0,2.9,1.9,4.4,4,4.5c0.8,0,2.4,0.1,2.4-1V55c0-0.8-1.1-0.8-1.8-0.8v-0.4
		L194.8,53.9L194.8,53.9z"/>
	<path class="st1" d="M176.1,48v0.4c-1.5,0-2,0.6-2.3,1.2l-5.5,9.4l-5.3-8.9c-0.4-0.7-1-1.7-2.5-1.7V48h6.2v0.4
		c-1.2,0-1.2,0.5-0.9,1.3l3.3,5.5c1.1-1.9,2.2-3.8,3.4-5.7c0.3-0.7,0.3-1.1-0.8-1.1V48H176.1z"/>
	<path class="st1" d="M160.3,56.8l-5.2-8.8l-5.5,9.4c-0.4,0.6-0.9,1.2-2.3,1.2V59h4.3v-0.4c-1.1,0-1.1-0.5-0.8-1.1l0.5-0.8h5.7
		l0.4,0.7c0.4,0.7,0.4,1.2-0.9,1.2V59h6.2v-0.4C161.4,58.5,160.7,57.5,160.3,56.8z M152,55.6l2.2-3.8l2.2,3.8H152z"/>
	<path class="st1" d="M143.9,52.8c0.8-0.4,1.4-1.3,1.4-2.2c0-1.4-1.1-2.5-2.5-2.5h-9.6v0.4c1.2,0,1.8,0.6,1.9,2.5v5
		c-0.1,2-0.7,2.5-1.9,2.5v0.4h10.2c1.7,0,3.1-1.4,3.1-3.1C146.4,54.3,145.3,53.1,143.9,52.8z M137.9,49.2h2.9c0.9,0,1.7,0.8,1.7,1.7
		c0,0.8-0.5,1.4-1.2,1.6c-0.2,0.1-0.6,0.1-0.9,0.1h-2.5V49.2z M141.6,57.8h-3.8v-4.1h3.8c1.1,0,2.1,0.9,2.1,2.1
		S142.8,57.8,141.6,57.8z"/>
	<path class="st1" d="M207.2,54.8c1.4-0.5,2.3-1.8,2.3-3.3c0-1.9-1.6-3.5-3.5-3.5h-9.6v0.4c1.2,0,1.9,0.6,1.9,2.5v5
		c-0.1,2-0.7,2.5-1.9,2.5v0.4h6.7v-0.4c-1.2,0-1.9-0.6-1.9-2.5V55h1.2c4.5,0,2.3,3.9,5.9,3.9h3.4v-0.4
		C208.5,58.5,208.8,55.7,207.2,54.8z M204.4,53.9h-3.2v-4.8h3.2c1.3,0,2.4,1.1,2.4,2.4C206.8,52.9,205.8,53.9,204.4,53.9z"/>
</g>
</svg>
