<?xml version="1.0" encoding="utf-8"?>
<!-- Generator: Adobe Illustrator 19.0.1, SVG Export Plug-In . SVG Version: 6.00 Build 0)  -->
<svg version="1.1" id="Слой_1" xmlns="http://www.w3.org/2000/svg" xmlns:xlink="http://www.w3.org/1999/xlink" x="0px" y="0px"
	 viewBox="0 0 40.8 42.4" style="enable-background:new 0 0 40.8 42.4;" xml:space="preserve">
<style type="text/css">
	.st0{clip-path:url(#SVGID_2_);fill:#61B22F;}
</style>
<g>
	<defs>
		<rect id="SVGID_1_" y="0" width="40.8" height="42.4"/>
	</defs>
	<clipPath id="SVGID_2_">
		<use xlink:href="#SVGID_1_"  style="overflow:visible;"/>
	</clipPath>
	<path class="st0" d="M22.4,16h-4.8v-4.8c0-0.4-0.4-0.8-0.8-0.8c-0.4,0-0.8,0.4-0.8,0.8V16h-4.8c-0.4,0-0.8,0.4-0.8,0.8
		s0.4,0.8,0.8,0.8H16v4.8c0,0.4,0.4,0.8,0.8,0.8c0.4,0,0.8-0.4,0.8-0.8v-4.8h4.8c0.4,0,0.8-0.4,0.8-0.8S22.8,16,22.4,16"/>
	<path class="st0" d="M40.6,41L28.7,28.7c3-3,4.9-7.2,4.9-11.9C33.6,7.5,26.1,0,16.8,0C7.5,0,0,7.5,0,16.8c0,9.3,7.5,16.8,16.8,16.8
		c4.1,0,7.8-1.5,10.7-3.9l11.9,12.4c0.2,0.2,0.4,0.2,0.6,0.2c0.2,0,0.4-0.1,0.6-0.2C40.9,41.8,40.9,41.3,40.6,41 M1.6,16.8
		c0-8.4,6.8-15.2,15.2-15.2C25.2,1.6,32,8.4,32,16.8C32,25.2,25.2,32,16.8,32C8.4,32,1.6,25.2,1.6,16.8"/>
</g>
</svg>
