<?xml version="1.0" encoding="utf-8"?>
<!-- Generator: Adobe Illustrator 22.0.1, SVG Export Plug-In . SVG Version: 6.00 Build 0)  -->
<svg version="1.1" id="Capa_1" xmlns="http://www.w3.org/2000/svg" xmlns:xlink="http://www.w3.org/1999/xlink" x="0px" y="0px"
	 viewBox="-49 225.3 512 341.3" style="enable-background:new -49 225.3 512 341.3;" xml:space="preserve">
<style type="text/css">
	.st0{fill:#53C419;}
</style>
<path class="st0" d="M409.7,567.7H4.3c-29.4,0-53.3-23.9-53.3-53.3V279.7c0-29.4,23.9-53.3,53.3-53.3h405.3
	c29.4,0,53.3,23.9,53.3,53.3v234.7C463,543.7,439.1,567.7,409.7,567.7z M4.3,247.7c-17.6,0-32,14.4-32,32v234.7
	c0,17.6,14.4,32,32,32h405.3c17.6,0,32-14.4,32-32V279.7c0-17.6-14.4-32-32-32H4.3z"/>
<path class="st0" d="M207,418.7c-11.7,0-23.5-3.5-33.7-10.5l-175-119.7c-4.9-3.3-6.1-10-2.8-14.8c3.3-4.9,9.9-6.1,14.8-2.8
	l175,119.7c13.2,9,30.2,9,43.4,0l175-119.7c4.9-3.3,11.5-2.1,14.8,2.8c3.3,4.9,2.1,11.5-2.8,14.8l-175,119.7
	C230.5,415.2,218.7,418.7,207,418.7z"/>
<path class="st0" d="M4.3,525c-3.1,0-6.1-1.3-8.2-3.8c-3.8-4.5-3.2-11.3,1.4-15l128-106.7c4.5-3.8,11.3-3.1,15,1.4
	c3.8,4.5,3.2,11.3-1.4,15l-128,106.7C9.2,524.2,6.7,525,4.3,525z"/>
<path class="st0" d="M409.7,525c-2.4,0-4.8-0.8-6.8-2.5l-128-106.7c-4.5-3.8-5.1-10.5-1.4-15c3.8-4.5,10.5-5.1,15-1.4l128,106.7
	c4.5,3.8,5.1,10.5,1.4,15C415.7,523.7,412.7,525,409.7,525z"/>
</svg>
