<?xml version="1.0" encoding="utf-8"?>
<!-- Generator: Adobe Illustrator 19.0.1, SVG Export Plug-In . SVG Version: 6.00 Build 0)  -->
<svg version="1.1" id="Layer_1" xmlns="http://www.w3.org/2000/svg" xmlns:xlink="http://www.w3.org/1999/xlink" x="0px" y="0px"
	 viewBox="0 0 349.6 397" style="enable-background:new 0 0 349.6 397;" xml:space="preserve">
<style type="text/css">
	.st0{fill:#53C419;}
</style>
<g>
	<path class="st0" d="M221,297.6c33-54.8,74.8-131.8,74.8-171.4C295.8,59.3,241.5,5,174.7,5C107.9,5,53.6,59.3,53.6,126.1
		c0,39.6,41.8,116.6,74.8,171.4C89.2,300.5,0,311.2,0,346.4C0,381.2,90.6,397,174.8,397c84.2,0,174.8-15.8,174.8-50.6
		C349.5,311.2,260.2,300.5,221,297.6L221,297.6z M70.3,126.1c0-57.6,46.9-104.5,104.4-104.5c57.6,0,104.5,46.9,104.5,104.5
		c0,50.3-80.2,176.6-104.5,213.7C150.4,302.7,70.3,176.4,70.3,126.1L70.3,126.1z M174.7,380.3c-102.3,0-158.1-22.4-158.1-33.9
		c0-8.9,36.8-28,121.6-32.9c15.9,25.7,28,43.8,29.6,46c2.2,2.9,8.5,6.3,13.8,0c1.7-2,13.7-20.3,29.6-46
		c84.8,4.9,121.6,23.9,121.6,32.9C332.8,358,277,380.3,174.7,380.3L174.7,380.3z M174.7,380.3"/>
	<path class="st0" d="M227.4,126.1c0-29.1-23.6-52.7-52.7-52.7c-29.1,0-52.7,23.6-52.7,52.7c0,29.1,23.6,52.7,52.7,52.7
		C203.8,178.8,227.4,155.2,227.4,126.1L227.4,126.1z M138.6,126.1c0-19.9,16.2-36.1,36.1-36.1c19.9,0,36.1,16.2,36.1,36.1
		c0,19.9-16.2,36.1-36.1,36.1C154.8,162.2,138.6,146,138.6,126.1L138.6,126.1z M138.6,126.1"/>
</g>
</svg>
