<?xml version="1.0" encoding="utf-8"?>
<!-- Generator: Adobe Illustrator 22.0.1, SVG Export Plug-In . SVG Version: 6.00 Build 0)  -->
<svg version="1.1" id="Layer_1" xmlns="http://www.w3.org/2000/svg" xmlns:xlink="http://www.w3.org/1999/xlink" x="0px" y="0px"
	 viewBox="13 141 385 512" style="enable-background:new 13 141 385 512;" xml:space="preserve">
<style type="text/css">
	.st0{fill:#F2F2F2;}
</style>
<path class="st0" d="M398.9,244.6c0-3.1-1.2-6.1-3.5-8.4l-91.8-91.8c0,0,0,0,0,0c-2.2-2.2-5.2-3.5-8.5-3.5H40.3
	C26.4,141,15,152.3,15,166.2v461.5c0,13.9,11.3,25.2,25.2,25.2h333.4c13.9,0,25.2-11.3,25.2-25.2v-383
	C399,244.7,398.9,244.7,398.9,244.6z M308.5,232.8c-0.7,0-1.3-0.6-1.3-1.3v-49.6l50.8,50.8H308.5z M373.7,629H40.3
	c-0.7,0-1.3-0.6-1.3-1.3V166.2c0-0.7,0.6-1.3,1.3-1.3h242.9v66.5c0,13.9,11.3,25.2,25.2,25.2H375v371C375,628.5,374.4,629,373.7,629
	z"/>
<path class="st0" d="M313.1,305H100.9c-6.6,0-12,5.4-12,12c0,6.6,5.4,12,12,12h212.2c6.6,0,12-5.4,12-12
	C325.1,310.4,319.7,305,313.1,305z"/>
<path class="st0" d="M313.1,377.4H100.9c-6.6,0-12,5.4-12,12c0,6.6,5.4,12,12,12h212.2c6.6,0,12-5.4,12-12
	C325.1,382.7,319.7,377.4,313.1,377.4z"/>
<path class="st0" d="M313.1,449.7H100.9c-6.6,0-12,5.4-12,12c0,6.6,5.4,12,12,12h212.2c6.6,0,12-5.4,12-12
	C325.1,455.1,319.7,449.7,313.1,449.7z"/>
<path class="st0" d="M207,522H100.9c-6.6,0-12,5.4-12,12c0,6.6,5.4,12,12,12H207c6.6,0,12-5.4,12-12C219,527.4,213.6,522,207,522z"
	/>
</svg>
