<?xml version="1.0" encoding="utf-8"?>
<!-- Generator: Adobe Illustrator 19.0.1, SVG Export Plug-In . SVG Version: 6.00 Build 0)  -->
<svg version="1.1" id="Capa_1" xmlns="http://www.w3.org/2000/svg" xmlns:xlink="http://www.w3.org/1999/xlink" x="0px" y="0px"
	 viewBox="-49 141 512 512" style="enable-background:new -49 141 512 512;" xml:space="preserve">
<style type="text/css">
	.st0{fill:#53C419;}
</style>
<g>
	<path class="st0" d="M386.3,217.8c-23.9-23.9-51.8-42.5-82.2-55.1c-30.4-12.6-63.2-19.2-97.1-19.2c-67.7,0-131.4,26.4-179.3,74.3
		S-46.5,329.3-46.5,397s26.4,131.4,74.3,179.3s111.5,74.3,179.3,74.3s131.4-26.4,179.3-74.3s74.3-111.5,74.3-179.3
		S434.1,265.6,386.3,217.8z M207,625.5C81,625.5-21.5,523-21.5,397S81,168.5,207,168.5S435.5,271,435.5,397S333,625.5,207,625.5z"/>
</g>
<g>
	<path class="st0" d="M315.9,397c0,6.9-5.6,12.5-12.5,12.5H207c-6.9,0-12.5-5.6-12.5-12.5v-96.4c0-6.9,5.6-12.5,12.5-12.5
		s12.5,5.6,12.5,12.5v83.9h83.9C310.3,384.5,315.9,390.1,315.9,397z"/>
</g>
</svg>
